<svg xmlns="http://www.w3.org/2000/svg" viewBox="0 0 800 1200" role="img" aria-labelledby="titulo descricao">
  <title id="titulo">Pôster de A Cicatriz</title>
  <desc id="descricao">Silhueta solitária diante de uma marca vermelha em um corredor escolar.</desc>
  <defs>
    <linearGradient id="p" x1="0" y1="0" x2="1" y2="1"><stop stop-color="#181b20"/><stop offset="1" stop-color="#020304"/></linearGradient>
    <radialGradient id="v"><stop stop-color="#000" stop-opacity="0"/><stop offset="1" stop-color="#000" stop-opacity=".9"/></radialGradient>
    <filter id="g"><feGaussianBlur stdDeviation="12"/></filter>
  </defs>
  <rect width="800" height="1200" fill="url(#p)"/>
  <path d="M0 220h800v770H0z" fill="#090b0e"/>
  <path d="M0 1200 290 390h220l290 810z" fill="#171a1f"/>
  <path d="M420 50 365 207l51 99-67 124 68 117-90 148 71 122-83 283" fill="none" stroke="#a51525" stroke-width="42" opacity=".3" filter="url(#g)"/>
  <path d="M420 50 365 207l51 99-67 124 68 117-90 148 71 122-83 283" fill="none" stroke="#d52c39" stroke-width="9"/>
  <path d="M394 640c-68 29-96 105-84 216l-87 241h354l-85-241c11-112-18-188-98-216z" fill="#010203"/>
  <rect width="800" height="1200" fill="url(#v)"/>
  <text x="400" y="920" text-anchor="middle" fill="#eeeae2" font-family="Arial, sans-serif" font-size="34" letter-spacing="14">UM FILME SOBRE AS</text>
  <text x="400" y="970" text-anchor="middle" fill="#eeeae2" font-family="Arial, sans-serif" font-size="34" letter-spacing="14">MARCAS DO SILÊNCIO</text>
  <text x="400" y="1070" text-anchor="middle" fill="#fff" font-family="Georgia, serif" font-size="86" font-weight="700" letter-spacing="4">A CICATRIZ</text>
  <rect x="322" y="1105" width="156" height="4" fill="#ca2635"/>
</svg>
